<?xml version="1.0" standalone="no"?>
<!DOCTYPE svg PUBLIC "-//W3C//DTD SVG 20010904//EN"
 "http://www.w3.org/TR/2001/REC-SVG-20010904/DTD/svg10.dtd">
<svg version="1.0" xmlns="http://www.w3.org/2000/svg"
 width="980.000000pt" height="980.000000pt" viewBox="0 0 980.000000 980.000000"
 preserveAspectRatio="xMidYMid meet">

<g transform="translate(0.000000,980.000000) scale(0.100000,-0.100000)"
fill="#d81b60" stroke="#d81b60">
<path d="M4625 7689 c-353 -33 -713 -130 -1021 -274 -845 -397 -1459 -1136
-1689 -2032 -240 -934 -22 -1948 578 -2689 88 -108 131 -156 233 -258 400
-399 907 -683 1454 -815 508 -122 1103 -106 1597 43 384 116 745 304 1043 545
619 499 1013 1183 1129 1956 32 212 40 507 21 725 -43 482 -197 942 -450 1350
-427 686 -1094 1173 -1876 1369 -316 79 -704 109 -1019 80z m711 -288 c67 -11
161 -30 210 -41 650 -152 1249 -552 1638 -1095 683 -951 709 -2215 68 -3195
-114 -173 -296 -388 -437 -515 -49 -44 -101 -90 -115 -103 -57 -53 -293 -215
-405 -279 -378 -217 -771 -333 -1228 -365 -565 -38 -1160 113 -1652 419 -378
236 -679 539 -917 923 -297 480 -443 1065 -408 1631 13 202 39 369 85 547 241
918 923 1652 1820 1957 181 62 364 104 565 130 164 22 619 14 776 -14z"/>
<path d="M4724 6870 c-85 -16 -215 -60 -291 -101 -179 -94 -348 -271 -430
-449 -69 -148 -93 -261 -93 -429 0 -129 17 -237 53 -332 49 -130 129 -265 149
-253 7 4 8 2 4 -4 -20 -32 182 -213 314 -281 160 -83 293 -115 475 -114 105 1
148 5 226 26 381 100 666 398 734 767 23 124 27 201 15 291 -52 421 -316 735
-720 856 -71 22 -109 26 -235 29 -82 1 -173 -1 -201 -6z"/>
<path d="M4705 4744 c-88 -10 -260 -46 -348 -74 -636 -198 -1113 -711 -1258
-1354 -41 -181 -66 -529 -39 -538 5 -1 836 -2 1845 0 l1835 2 0 98 c0 574
-238 1088 -670 1449 -188 156 -423 282 -647 347 -190 54 -277 67 -483 71 -107
1 -213 1 -235 -1z"/>
</g>
</svg>
